<svg width="100" height="100" viewBox="0 0 100 100" fill="none" xmlns="http://www.w3.org/2000/svg">
<path d="M77.9883 45.4688C77.9883 45.2344 78.0273 45 78.0273 44.7656C78.0273 32.207 67.7148 21.875 55.2148 21.875C46.2109 21.875 38.457 27.3242 34.8242 34.9609C33.2422 34.1602 31.4844 33.7109 29.5898 33.7109C23.8086 33.7109 19.0234 38.3398 18.0859 43.8672C11.2109 46.25 6.25 52.5 6.25 60.2344C6.25 69.9609 14.082 78.125 23.75 78.125H77.7344C86.5234 78.125 93.75 70.5273 93.75 61.6602C93.75 52.7539 86.8359 45.4883 77.9883 45.4688ZM77.6367 74.9219L77.0117 75H23.9062C15.918 75 9.41406 68.1836 9.41406 60.1367C9.41406 53.9062 13.3594 48.7305 19.2188 46.6992L20.8594 46.1133L21.1523 44.3945C21.8555 40.1758 25.4688 36.7188 29.7266 36.7188C31.0742 36.7188 32.4023 37.0313 33.6133 37.6563L36.25 38.9844L37.5195 36.3086C40.7617 29.4922 47.6953 24.9414 55.1758 24.9414C65.9766 24.9414 74.8828 33.5547 74.8828 44.4141C74.8828 47.0117 74.8438 48.3789 74.8438 48.3789L77.8125 48.3984C84.9805 48.4961 90.625 54.3555 90.625 61.5625C90.625 68.7695 84.8047 74.8828 77.6367 74.9219Z" fill="white" fill-opacity="0.82"/>
</svg>
