<svg width="105" height="105" viewBox="0 0 105 105" fill="none" xmlns="http://www.w3.org/2000/svg">
<path d="M73.6255 69.5937C60.0101 69.5937 50.2849 54.181 49.9312 53.4883L48.8703 51.7565L49.9312 50.0247C50.2849 49.1588 60.0101 33.7461 73.6255 33.7461C83.7044 33.7461 91.8383 41.7122 91.8383 51.5833C91.8383 61.4544 83.7044 69.5937 73.6255 69.5937ZM57.181 51.5833C59.8333 55.0469 66.199 62.4935 73.4487 62.4935C79.6375 62.4935 84.5885 57.6445 84.5885 51.5833C84.5885 45.5221 79.6375 40.6732 73.4487 40.6732C66.199 40.6732 59.8333 48.1198 57.181 51.5833Z" fill="#FF6700"/>
<path d="M32.2494 69.5937C22.1705 69.5937 14.0367 61.4544 14.0367 51.5833C14.0367 41.7122 22.1705 33.7461 32.2494 33.7461C46.2185 33.7461 55.5901 49.1588 55.9437 49.8516L57.0047 51.5833L55.9437 53.3151C55.5901 54.0078 45.8648 69.5937 32.2494 69.5937ZM32.2494 40.6732C26.0606 40.6732 21.1096 45.5221 21.1096 51.5833C21.1096 57.6445 26.0606 62.4935 32.2494 62.4935C39.676 62.4935 46.0416 55.0469 48.694 51.5833C46.2185 48.1198 39.8528 40.6732 32.2494 40.6732Z" fill="#FF6700"/>
<path d="M28.1821 49.332H38.7915V52.7956H28.1821V49.332ZM67.0832 49.332H77.6926V52.7956H67.0832V49.332Z" fill="#FF6700"/>
<path d="M70.6202 45.8682H74.1566V56.2588H70.6202V45.8682Z" fill="#FF6700"/>
<circle cx="52.5" cy="52.5" r="50.5" fill="#C4C4C4" fill-opacity="0.12" stroke="#FF6700" stroke-width="4"/>
</svg>
