<svg width="67" height="48" viewBox="0 0 67 48" fill="none" xmlns="http://www.w3.org/2000/svg">
<path d="M66.4615 40.6154C66.4615 42.5739 65.6835 44.4522 64.2986 45.8371C62.9137 47.222 61.0354 48 59.0769 48H7.38462C5.42609 48 3.54779 47.222 2.1629 45.8371C0.77802 44.4522 0 42.5739 0 40.6154V7.38462C0 5.42609 0.77802 3.54779 2.1629 2.1629C3.54779 0.778019 5.42609 0 7.38462 0H59.0769C61.0354 0 62.9137 0.778019 64.2986 2.1629C65.6835 3.54779 66.4615 5.42609 66.4615 7.38462V40.6154Z" fill="#EEEEEE"/>
<path d="M25.2646 14.8948C27.4462 12.9337 30.2731 11.8439 33.2066 11.833C36.14 11.8221 38.9749 12.8909 41.1711 14.8357L61.1705 0.336C60.4926 0.123244 59.7873 0.0100622 59.0769 0H7.38461C6.62584 0 5.90769 0.147693 5.21722 0.36L25.2646 14.8948Z" fill="#CE1126"/>
<path d="M44.3778 19.3532C44.9772 20.8332 45.2738 22.4184 45.25 24.015C45.2263 25.6115 44.8826 27.1871 44.2394 28.6486L65.5514 44.0991C66.1126 43.0579 66.4615 41.8837 66.4615 40.6154V7.38462C66.4531 6.19401 66.1539 5.02348 65.5902 3.97478L44.3778 19.3532ZM22.2258 28.5729C20.9743 25.6648 20.9272 22.3791 22.0948 19.4363L0.841846 4.02832C0.296357 5.06347 0.00763411 6.21456 0 7.38462L0 40.6154C0 41.8615 0.337846 43.0172 0.882462 44.0474L22.2258 28.5729Z" fill="#1EB53A"/>
<path d="M40.9052 33.0757C38.7552 34.8627 36.0468 35.8393 33.2511 35.8357C30.426 35.8388 27.6912 34.8407 25.5323 33.0185L5.31877 47.6714C5.98819 47.8789 6.68385 47.9895 7.38462 48H59.0769C59.7729 48 60.432 47.8726 61.0689 47.6935L40.9052 33.0757Z" fill="#CE1126"/>
<path d="M35.2191 18.9526L35.8043 17.9409L36.2031 17.2486H34.2351L33.6498 16.2369L33.2511 15.5446L32.8505 16.2369L32.2671 17.2486H30.2972L30.6978 17.9409L31.2812 18.9526L30.6978 19.9662L30.2972 20.6585H32.2671L32.8505 21.6702L33.2511 22.3625L33.6498 21.6702L34.2351 20.6585H36.2031L35.8043 19.9662L35.2191 18.9526Z" fill="#1EB53A"/>
<path d="M35.4037 17.7102H33.9692L33.2511 16.4677L32.5329 17.7102H31.0966L31.8148 18.9526L31.0966 20.1969H32.5329L33.2511 21.4394L33.9692 20.1969H35.4037L34.6855 18.9526L35.4037 17.7102Z" fill="#CE1126"/>
<path d="M40.4825 27.3323L41.0677 26.3188L41.4683 25.6265H39.4985L38.9151 24.6148L38.5145 23.9225L38.1157 24.6148L37.5305 25.6265H35.5625L35.9612 26.3188L36.5465 27.3323L35.9612 28.344L35.5625 29.0363H37.5305L38.1157 30.048L38.5145 30.7422L38.9151 30.048L39.4985 29.0363H41.4683L41.0677 28.344L40.4825 27.3323Z" fill="#1EB53A"/>
<path d="M38.5145 24.8455L37.7963 26.088H36.3618L37.0782 27.3323L36.3618 28.5748H37.7963L38.5145 29.8172L39.2326 28.5748H40.6689L39.9508 27.3323L40.6689 26.088H39.2326L38.5145 24.8455Z" fill="#CE1126"/>
<path d="M30.5391 28.4517L29.9557 27.4154L30.5391 26.3772L30.9397 25.668H28.9717L28.3865 24.6316L27.9858 23.9225L27.5871 24.6316L27.0018 25.668H25.0338L25.4326 26.3772L26.0178 27.4154L25.4326 28.4517L25.0338 29.1609H27.0018L27.5871 30.1972L27.9858 30.9083L28.3865 30.1972L28.9717 29.1609H30.9397L30.5391 28.4517Z" fill="#1EB53A"/>
<path d="M30.1403 26.1295H28.704L27.9859 24.8455L27.2695 26.1295H25.8332L26.5514 27.4154L25.8332 28.6994H27.2695L27.9859 29.9834L28.704 28.6994H30.1403L29.4222 27.4154L30.1403 26.1295Z" fill="#CE1126"/>
</svg>
