<svg width="40" height="40" viewBox="0 0 40 40" fill="none" xmlns="http://www.w3.org/2000/svg">
<path d="M15.8813 27.325C16.7916 29.2193 18.2106 30.8233 19.9797 31.9579C21.7489 33.0925 23.7986 33.7129 25.9 33.75H35.1875C35.1875 33.75 32.4438 32.5 34.625 28.8313C35.6318 27.2609 36.21 25.4543 36.3022 23.5912C36.3943 21.7281 35.9973 19.8733 35.1504 18.2112C34.3036 16.5492 33.0365 15.1377 31.475 14.1171C29.9136 13.0965 28.1122 12.5024 26.25 12.3938C25.5615 12.3552 24.8709 12.3824 24.1875 12.475" stroke="white" stroke-width="2" stroke-linecap="round" stroke-linejoin="round"/>
<path d="M5.37501 22.5813C4.46114 21.1562 3.89886 19.5344 3.73449 17.8495C3.57012 16.1646 3.80836 14.4648 4.42958 12.89C5.05081 11.3152 6.03725 9.91047 7.30767 8.79156C8.57809 7.67265 10.0961 6.87153 11.7368 6.45419C13.3775 6.03686 15.0938 6.01524 16.7444 6.39111C18.3951 6.76698 19.9328 7.5296 21.231 8.61616C22.5292 9.70271 23.5508 11.0821 24.2115 12.6408C24.8722 14.1994 25.1531 15.8927 25.0313 17.5813C24.6438 23.0625 19.575 27.5 14.1 27.5H4.81251C4.81251 27.5 7.55626 26.25 5.37501 22.5813Z" stroke="white" stroke-width="2" stroke-linecap="round" stroke-linejoin="round"/>
<path d="M10.625 15.625H18.125" stroke="white" stroke-width="2" stroke-linecap="round" stroke-linejoin="round"/>
<path d="M10.625 18.75H18.125" stroke="white" stroke-width="2" stroke-linecap="round" stroke-linejoin="round"/>
</svg>
