<svg width="293" height="255" viewBox="0 0 293 255" fill="none" xmlns="http://www.w3.org/2000/svg">
<g clip-path="url(#clip0_13_104)">
<path d="M64.0937 70.6429C64.5302 70.6301 64.9557 70.5203 65.3298 70.3242C65.8391 70.0384 66.1974 69.5885 66.3261 69.0731C66.4549 68.5578 66.3435 68.019 66.0166 67.575C62.9182 63.3762 61.5624 58.3817 62.1743 53.4201C62.7862 48.4585 65.329 43.8282 69.3806 40.2973C73.4323 36.7665 78.7493 34.5474 84.4495 34.0083C90.1496 33.4692 95.8902 34.6425 100.719 37.3335C101.229 37.6181 101.848 37.715 102.44 37.603C103.032 37.4909 103.549 37.1791 103.878 36.7359C104.207 36.2857 104.32 35.7407 104.191 35.2189C104.063 34.697 103.703 34.2401 103.191 33.9468C97.4706 30.6819 90.6325 29.232 83.8277 29.841C77.0229 30.45 70.667 33.0808 65.8299 37.2906C60.9928 41.5004 57.9699 47.032 57.2701 52.9543C56.5703 58.8765 58.2364 64.8278 61.9878 69.8062C62.2337 70.0847 62.5542 70.3065 62.9213 70.4524C63.2884 70.5982 63.6909 70.6636 64.0937 70.6429Z" fill="white"/>
<path d="M86.9843 77.6954C84.3217 77.7042 81.676 77.3271 79.1557 76.5797C78.5726 76.4255 77.9438 76.4717 77.3987 76.7089C76.8536 76.9461 76.4338 77.3562 76.2257 77.8547C76.038 78.3567 76.0868 78.903 76.3615 79.3736C76.6361 79.8443 77.1142 80.2008 77.6907 80.3649C80.643 81.2244 83.7339 81.6682 86.847 81.6797C90.7647 81.6902 94.6463 81.0284 98.2698 79.732C101.893 78.4357 105.188 76.5303 107.964 74.1249C110.741 71.7195 112.945 68.8612 114.452 65.7136C115.958 62.5661 116.736 59.1909 116.742 55.7813C116.729 53.072 116.219 50.3819 115.231 47.8125C115.043 47.3108 114.633 46.8948 114.092 46.6557C113.552 46.4166 112.924 46.3741 112.347 46.5376C111.774 46.7186 111.303 47.084 111.031 47.5584C110.758 48.0328 110.705 48.5801 110.882 49.0875C111.726 51.243 112.159 53.5041 112.164 55.7813C112.152 61.59 109.495 67.1578 104.776 71.2652C100.056 75.3727 93.6587 77.6848 86.9843 77.6954Z" fill="white"/>
<path d="M86.9844 65.7422C89.248 65.7422 91.4609 65.158 93.343 64.0635C95.2252 62.969 96.6922 61.4133 97.5585 59.5931C98.4247 57.773 98.6514 55.7702 98.2098 53.838C97.7681 51.9057 96.6781 50.1309 95.0774 48.7378C93.4768 47.3447 91.4374 46.3961 89.2172 46.0117C86.9971 45.6274 84.6958 45.8246 82.6044 46.5785C80.5131 47.3325 78.7256 48.6092 77.4679 50.2473C76.2103 51.8853 75.5391 53.8112 75.5391 55.7813C75.5391 58.4231 76.7449 60.9567 78.8913 62.8247C81.0377 64.6927 83.9489 65.7422 86.9844 65.7422ZM86.9844 49.8047C88.3426 49.8047 89.6703 50.1552 90.7996 50.8119C91.9289 51.4686 92.8091 52.402 93.3288 53.4941C93.8486 54.5862 93.9846 55.7879 93.7196 56.9472C93.4546 58.1066 92.8006 59.1715 91.8402 60.0073C90.8798 60.8432 89.6562 61.4124 88.3241 61.643C86.992 61.8736 85.6112 61.7552 84.3564 61.3029C83.1016 60.8505 82.0291 60.0845 81.2745 59.1017C80.5199 58.1188 80.1172 56.9633 80.1172 55.7813C80.1172 54.1962 80.8407 52.676 82.1285 51.5552C83.4164 50.4344 85.1631 49.8047 86.9844 49.8047Z" fill="white"/>
<path d="M257.519 105.865C257.262 105.73 256.976 105.642 256.679 105.605C256.382 105.568 256.079 105.583 255.789 105.65C255.498 105.717 255.226 105.834 254.989 105.994C254.751 106.154 254.553 106.354 254.406 106.582L238.062 131.684L230.966 122.4C230.626 121.956 230.098 121.648 229.497 121.543C228.896 121.439 228.272 121.546 227.762 121.842C227.252 122.138 226.898 122.598 226.777 123.121C226.657 123.644 226.781 124.187 227.121 124.631L236.277 136.584C236.492 136.855 236.779 137.076 237.114 137.229C237.449 137.382 237.822 137.461 238.2 137.461C238.585 137.449 238.959 137.351 239.288 137.177C239.617 137.002 239.888 136.757 240.077 136.465L258.389 108.574C258.542 108.348 258.641 108.097 258.68 107.837C258.719 107.576 258.698 107.311 258.617 107.059C258.535 106.806 258.396 106.569 258.208 106.364C258.019 106.159 257.785 105.989 257.519 105.865Z" fill="white"/>
<path d="M279.266 151.406H273.863C274.396 150.129 274.675 148.781 274.688 147.422V67.7344C274.688 64.5642 273.241 61.5239 270.665 59.2822C268.089 57.0406 264.596 55.7812 260.953 55.7812H224.328C220.686 55.7812 217.192 57.0406 214.616 59.2822C212.041 61.5239 210.594 64.5642 210.594 67.7344V71.7188C209.38 71.7188 208.215 72.1385 207.357 72.8857C206.498 73.633 206.016 74.6464 206.016 75.7031V83.6719C206.016 84.7286 206.498 85.742 207.357 86.4893C208.215 87.2365 209.38 87.6562 210.594 87.6562V147.422C210.606 148.781 210.885 150.129 211.418 151.406H144.211V127.5H146.5C147.714 127.5 148.879 127.08 149.737 126.333C150.596 125.586 151.078 124.572 151.078 123.516H160.234C163.877 123.516 167.37 122.256 169.946 120.015C172.522 117.773 173.969 114.733 173.969 111.562V11.9531C173.969 8.78296 172.522 5.74263 169.946 3.50099C167.37 1.25934 163.877 0 160.234 0L13.7344 0C10.0918 0 6.5984 1.25934 4.02271 3.50099C1.44701 5.74263 0 8.78296 0 11.9531L0 111.562C0 114.733 1.44701 117.773 4.02271 120.015C6.5984 122.256 10.0918 123.516 13.7344 123.516H64.0938C62.8891 133.041 60.3682 142.406 56.5856 151.406H13.7344C10.5135 151.428 7.40381 152.434 4.94899 154.249C2.49416 156.064 0.850353 158.572 0.304909 161.335C-0.240534 164.098 0.347091 166.939 1.96506 169.363C3.58303 171.787 6.12841 173.639 9.15625 174.595V243.047C9.15625 246.217 10.6033 249.257 13.179 251.499C15.7547 253.741 19.248 255 22.8906 255C26.5332 255 30.0266 253.741 32.6023 251.499C35.178 249.257 36.625 246.217 36.625 243.047V207.188H114.453C118.096 207.188 121.589 205.928 124.165 203.687C126.741 201.445 128.188 198.405 128.188 195.234V175.312H139.633V207.188C139.633 219.34 145.18 230.994 155.053 239.587C164.927 248.18 178.318 253.008 192.281 253.008C206.245 253.008 219.636 248.18 229.509 239.587C239.383 230.994 244.93 219.34 244.93 207.188V175.312H256.375V243.047C256.375 246.217 257.822 249.257 260.398 251.499C262.973 253.741 266.467 255 270.109 255C273.752 255 277.245 253.741 279.821 251.499C282.397 249.257 283.844 246.217 283.844 243.047V174.595C286.872 173.639 289.417 171.787 291.035 169.363C292.653 166.939 293.241 164.098 292.695 161.335C292.15 158.572 290.506 156.064 288.051 154.249C285.596 152.434 282.487 151.428 279.266 151.406ZM219.75 67.7344C219.75 66.6777 220.232 65.6642 221.091 64.917C221.949 64.1698 223.114 63.75 224.328 63.75H260.953C262.167 63.75 263.332 64.1698 264.19 64.917C265.049 65.6642 265.531 66.6777 265.531 67.7344V68.9297H263.242C261.916 68.9539 260.614 69.2389 259.433 69.7633C258.251 70.2877 257.222 71.0379 256.421 71.9578C255.139 73.1531 254.452 73.7109 252.941 73.7109H232.34C230.829 73.7109 230.142 73.1531 228.861 71.9578C228.06 71.0379 227.03 70.2877 225.849 69.7633C224.667 69.2389 223.365 68.9539 222.039 68.9297H219.75V67.7344ZM219.75 147.422V72.9141H222.039C223.55 72.9141 224.237 73.4719 225.518 74.6672C226.319 75.5871 227.349 76.3373 228.53 76.8617C229.712 77.3861 231.014 77.6711 232.34 77.6953H252.941C254.267 77.6711 255.57 77.3861 256.751 76.8617C257.932 76.3373 258.962 75.5871 259.763 74.6672C261.045 73.4719 261.731 72.9141 263.242 72.9141H265.531V147.422C265.531 148.479 265.049 149.492 264.19 150.239C263.332 150.986 262.167 151.406 260.953 151.406H224.328C223.114 151.406 221.949 150.986 221.091 150.239C220.232 149.492 219.75 148.479 219.75 147.422ZM224.328 159.375H233.484C233.484 160.432 233.967 161.445 234.825 162.192C235.684 162.94 236.848 163.359 238.063 163.359H240.352V167.344H144.211V159.375H224.328ZM139.633 151.406H117.612C113.829 142.406 111.309 133.041 110.104 123.516H132.766C132.766 124.572 133.248 125.586 134.107 126.333C134.965 127.08 136.13 127.5 137.344 127.5H139.633V151.406ZM164.813 111.562C164.813 112.619 164.33 113.633 163.472 114.38C162.613 115.127 161.449 115.547 160.234 115.547H93.76C95.1868 114.623 96.3444 113.421 97.1396 112.037C97.9348 110.653 98.3453 109.126 98.3381 107.578C98.3549 105.433 97.5851 103.34 96.1406 101.602H164.813V111.562ZM86.9844 101.602C88.3426 101.602 89.6703 101.952 90.7996 102.609C91.9289 103.266 92.8091 104.199 93.3288 105.291C93.8486 106.383 93.9846 107.585 93.7196 108.744C93.4547 109.903 92.8006 110.968 91.8402 111.804C90.8798 112.64 89.6562 113.209 88.3241 113.44C86.992 113.67 85.6112 113.552 84.3564 113.1C83.1016 112.647 82.0291 111.881 81.2745 110.899C80.52 109.916 80.1172 108.76 80.1172 107.578C80.1172 105.993 80.8407 104.473 82.1286 103.352C83.4164 102.231 85.1631 101.602 86.9844 101.602ZM13.7344 7.96875H160.234C161.449 7.96875 162.613 8.38853 163.472 9.13575C164.33 9.88296 164.813 10.8964 164.813 11.9531V97.6172H9.15625V11.9531C9.15625 10.8964 9.63859 9.88296 10.4972 9.13575C11.3557 8.38853 12.5202 7.96875 13.7344 7.96875ZM9.15625 111.562V101.602H77.8281C76.3511 103.33 75.5488 105.424 75.5391 107.578C75.5319 109.126 75.9424 110.653 76.7376 112.037C77.5328 113.421 78.6904 114.623 80.1172 115.547H13.7344C12.5202 115.547 11.3557 115.127 10.4972 114.38C9.63859 113.633 9.15625 112.619 9.15625 111.562ZM73.25 123.516H100.719C101.743 133.026 104.095 142.392 107.723 151.406H66.0624C69.753 142.398 72.1668 133.032 73.25 123.516ZM27.4688 203.203V229.102H18.3125V175.312H27.4688V203.203ZM22.8906 247.031C21.6764 247.031 20.512 246.611 19.6534 245.864C18.7948 245.117 18.3125 244.104 18.3125 243.047V233.086H27.4688V243.047C27.4688 244.104 26.9864 245.117 26.1278 245.864C25.2693 246.611 24.1048 247.031 22.8906 247.031ZM119.031 195.234C119.031 196.291 118.549 197.305 117.69 198.052C116.832 198.799 115.667 199.219 114.453 199.219H36.625V175.312H119.031V195.234ZM123.609 167.344H13.7344C12.5202 167.344 11.3557 166.924 10.4972 166.177C9.63859 165.43 9.15625 164.416 9.15625 163.359C9.15625 162.303 9.63859 161.289 10.4972 160.542C11.3557 159.795 12.5202 159.375 13.7344 159.375H139.633V167.344H123.609ZM240.352 207.188C240.352 218.283 235.287 228.924 226.272 236.77C217.257 244.616 205.03 249.023 192.281 249.023C179.532 249.023 167.305 244.616 158.29 236.77C149.275 228.924 144.211 218.283 144.211 207.188V175.312H240.352V207.188ZM274.688 229.102H265.531V175.312H274.688V229.102ZM270.109 247.031C268.895 247.031 267.731 246.611 266.872 245.864C266.014 245.117 265.531 244.104 265.531 243.047V233.086H274.688V243.047C274.688 244.104 274.205 245.117 273.347 245.864C272.488 246.611 271.324 247.031 270.109 247.031ZM279.266 167.344H244.93V163.359H247.219C248.433 163.359 249.597 162.94 250.456 162.192C251.315 161.445 251.797 160.432 251.797 159.375H279.266C280.48 159.375 281.644 159.795 282.503 160.542C283.361 161.289 283.844 162.303 283.844 163.359C283.844 164.416 283.361 165.43 282.503 166.177C281.644 166.924 280.48 167.344 279.266 167.344Z" fill="white"/>
<path d="M77.8281 193.242C79.1863 193.242 80.514 192.892 81.6433 192.235C82.7726 191.578 83.6528 190.645 84.1726 189.553C84.6923 188.461 84.8283 187.259 84.5634 186.1C84.2984 184.94 83.6443 183.875 82.684 183.04C81.7236 182.204 80.4999 181.635 79.1678 181.404C77.8357 181.173 76.455 181.292 75.2002 181.744C73.9454 182.196 72.8728 182.962 72.1183 183.945C71.3637 184.928 70.9609 186.084 70.9609 187.266C70.9609 188.851 71.6844 190.371 72.9723 191.492C74.2601 192.613 76.0068 193.242 77.8281 193.242ZM77.8281 185.273C78.2809 185.273 78.7234 185.39 79.0999 185.609C79.4763 185.828 79.7697 186.139 79.9429 186.503C80.1162 186.867 80.1615 187.268 80.0732 187.654C79.9849 188.041 79.7669 188.396 79.4467 188.674C79.1266 188.953 78.7187 189.143 78.2747 189.22C77.8307 189.296 77.3704 189.257 76.9521 189.106C76.5339 188.955 76.1764 188.7 75.9248 188.372C75.6733 188.045 75.5391 187.66 75.5391 187.266C75.5391 186.737 75.7802 186.231 76.2095 185.857C76.6388 185.483 77.221 185.273 77.8281 185.273Z" fill="white"/>
</g>
<defs>
<clipPath id="clip0_13_104">
<rect width="293" height="255" fill="white"/>
</clipPath>
</defs>
</svg>
