<svg width="90" height="90" viewBox="0 0 90 90" fill="none" xmlns="http://www.w3.org/2000/svg">
<g clip-path="url(#clip0_13_113)">
<path fill-rule="evenodd" clip-rule="evenodd" d="M1.5 60C2.3295 60 3 59.3295 3 58.5V42H82.5C83.3295 42 84 41.3295 84 40.5C84 39.6705 83.3295 39 82.5 39H1.5C0.6705 39 0 39.6705 0 40.5V58.5C0 59.3295 0.6705 60 1.5 60ZM16.5 51C15.6705 51 15 51.6705 15 52.5C15 53.3295 15.6705 54 16.5 54H43.5C44.3295 54 45 53.3295 45 52.5C45 51.6705 44.3295 51 43.5 51H16.5ZM58.5 51C57.672 51 57 51.672 57 52.5C57 53.328 57.672 54 58.5 54C59.328 54 60 53.328 60 52.5C60 51.672 59.328 51 58.5 51ZM58.5 48C60.981 48 63 50.019 63 52.5C63 54.981 60.981 57 58.5 57C56.019 57 54 54.981 54 52.5C54 50.019 56.019 48 58.5 48ZM70.5 51C69.672 51 69 51.672 69 52.5C69 53.328 69.672 54 70.5 54C71.328 54 72 53.328 72 52.5C72 51.672 71.328 51 70.5 51ZM70.5 48C72.981 48 75 50.019 75 52.5C75 54.981 72.981 57 70.5 57C68.019 57 66 54.981 66 52.5C66 50.019 68.019 48 70.5 48ZM16.5 75C15.6705 75 15 75.6705 15 76.5C15 77.3295 15.6705 78 16.5 78H43.5C44.3295 78 45 77.3295 45 76.5C45 75.6705 44.3295 75 43.5 75H16.5ZM58.5 75C57.672 75 57 75.672 57 76.5C57 77.328 57.672 78 58.5 78C59.328 78 60 77.328 60 76.5C60 75.672 59.328 75 58.5 75ZM58.5 72C60.981 72 63 74.019 63 76.5C63 78.981 60.981 81 58.5 81C56.019 81 54 78.981 54 76.5C54 74.019 56.019 72 58.5 72ZM70.5 75C69.672 75 69 75.672 69 76.5C69 77.328 69.672 78 70.5 78C71.328 78 72 77.328 72 76.5C72 75.672 71.328 75 70.5 75ZM70.5 72C72.981 72 75 74.019 75 76.5C75 78.981 72.981 81 70.5 81C68.019 81 66 78.981 66 76.5C66 74.019 68.019 72 70.5 72ZM90 7.5V82.5C90 86.355 86.355 90 82.5 90H7.5C3.645 90 0 86.355 0 82.5V64.5C0 63.6705 0.6705 63 1.5 63H82.5C83.3295 63 84 63.6705 84 64.5C84 65.3295 83.3295 66 82.5 66H3V82.5C3 84.687 5.313 87 7.5 87H82.5C84.687 87 87 84.687 87 82.5V7.5C87 5.313 84.687 3 82.5 3H7.5C5.313 3 3 5.313 3 7.5V34.5C3 35.3295 2.3295 36 1.5 36C0.6705 36 0 35.3295 0 34.5V7.5C0 3.645 3.645 0 7.5 0H82.5C86.355 0 90 3.645 90 7.5Z" fill="#FFFEFE"/>
</g>
<defs>
<clipPath id="clip0_13_113">
<rect width="90" height="90" fill="white"/>
</clipPath>
</defs>
</svg>
