<svg width="37" height="37" viewBox="0 0 37 37" fill="none" xmlns="http://www.w3.org/2000/svg">
<g clip-path="url(#clip0_31_76)">
<path fill-rule="evenodd" clip-rule="evenodd" d="M32.4795 0C34.9745 0 37 2.02561 37 4.5205V32.4795C37 34.9744 34.9744 37 32.4795 37H24.7855V23.0589H29.5984L30.5142 17.0882H24.7855V13.2136C24.7855 11.5801 25.5857 9.9879 28.1517 9.9879H30.7563V4.90474C30.7563 4.90474 28.3924 4.50135 26.1326 4.50135C21.4145 4.50135 18.3308 7.36083 18.3308 12.5376V17.0882H13.0862V23.0589H18.3308V37H4.5205C2.02561 37 0 34.9744 0 32.4795V4.5205C0 2.02561 2.02553 0 4.5205 0H32.4795V0Z" fill="white"/>
</g>
<defs>
<clipPath id="clip0_31_76">
<rect width="37" height="37" rx="10" fill="white"/>
</clipPath>
</defs>
</svg>
