<svg width="67" height="49" viewBox="0 0 67 49" fill="none" xmlns="http://www.w3.org/2000/svg">
<path d="M66.9185 40.8946C66.9185 42.8666 66.1351 44.7578 64.7407 46.1522C63.3463 47.5466 61.4551 48.33 59.4831 48.33H44.6123V0H59.4831C61.4551 0 63.3463 0.783368 64.7407 2.17777C66.1351 3.57218 66.9185 5.4634 66.9185 7.43538V40.8946Z" fill="#ED2939"/>
<path d="M7.43539 0C5.4634 0 3.57218 0.783368 2.17777 2.17777C0.783369 3.57218 0 5.4634 0 7.43538L0 40.8946C0 42.8666 0.783369 44.7578 2.17777 46.1522C3.57218 47.5466 5.4634 48.33 7.43539 48.33H22.3062V0H7.43539Z" fill="#002495"/>
<path d="M22.3058 0H44.6119V48.33H22.3058V0Z" fill="#EEEEEE"/>
</svg>
