<svg width="75" height="75" viewBox="0 0 75 75" fill="none" xmlns="http://www.w3.org/2000/svg">
<path d="M37.5 17.1875C26.25 17.1875 17.1875 26.25 17.1875 37.5C17.1875 48.75 26.25 57.8125 37.5 57.8125C48.75 57.8125 57.8125 48.75 57.8125 37.5C57.8125 26.25 48.75 17.1875 37.5 17.1875ZM37.5 54.6875C27.9688 54.6875 20.3125 47.0312 20.3125 37.5C20.3125 27.9688 27.9688 20.3125 37.5 20.3125C47.0312 20.3125 54.6875 27.9688 54.6875 37.5C54.6875 47.0312 47.0312 54.6875 37.5 54.6875Z" fill="white"/>
<path d="M68.75 31.25H65C64.2187 27.9688 62.9687 25 61.4062 22.5L63.9063 19.6875C65.7813 17.8125 65.7813 15 63.9063 13.125L61.7188 10.9375C59.8437 9.0625 56.875 9.0625 55.1562 10.9375L52.3438 13.75C49.5313 11.875 46.7187 10.7813 43.5937 10.1562V6.25C43.5937 3.59375 41.5625 1.5625 38.9062 1.5625H35.7812C33.125 1.5625 31.0937 3.59375 31.0937 6.25V10.1562C28.125 10.7813 25.1563 12.0313 22.3438 13.75L19.6875 11.0937C17.8125 9.21875 15 9.21875 13.125 11.0937L10.9375 13.2812C10 14.2188 9.53125 15.3125 9.53125 16.5625C9.53125 17.8125 10 18.9062 10.9375 19.8437L13.75 22.5C12.0313 25.3125 10.7813 28.125 10.1562 31.25H6.25C3.59375 31.25 1.5625 33.2812 1.5625 35.9375V39.0625C1.5625 41.7188 3.59375 43.75 6.25 43.75H10.1562C10.7813 46.7187 12.0312 49.6875 13.9062 52.5L11.25 55.3125C9.375 57.1875 9.375 60 11.25 61.875L13.2812 64.0625C15.1563 65.9375 17.9687 65.9375 19.8437 64.0625L22.5 61.25C25.3125 62.9688 28.125 64.2187 31.25 64.8438V68.75C31.25 71.4063 33.2812 73.4375 35.9375 73.4375H39.0625C41.7188 73.4375 43.75 71.4063 43.75 68.75V65C47.0312 64.2187 49.8437 62.9687 52.5 61.4062L55.1562 63.9063C57.0312 65.7813 59.8437 65.7813 61.7188 63.9063L63.9063 61.7188C65.7813 59.8437 65.7813 57.0312 63.9063 55.1562L61.25 52.5C63.125 49.6875 64.2187 46.875 64.8438 43.75H68.75C71.4063 43.75 73.4375 41.7188 73.4375 39.0625V35.9375C73.4375 33.2812 71.4063 31.25 68.75 31.25ZM70.3125 39.0625C70.3125 40 69.6875 40.625 68.75 40.625H62.1875L62.0313 41.875C61.4063 45.3125 60.1562 48.5937 57.9687 51.7187L57.1875 52.8125L61.7188 57.3438C62.0313 57.6563 62.1875 57.9688 62.1875 58.4375C62.1875 58.9063 62.0313 59.2187 61.7188 59.5312L59.5312 61.7188C58.9062 62.3438 57.9688 62.3438 57.3438 61.7188L52.8125 57.3438L51.7187 58.125C48.9062 60.1563 45.625 61.5625 41.875 62.1875L40.625 62.5V68.75C40.625 69.6875 40 70.3125 39.0625 70.3125H35.9375C35 70.3125 34.375 69.6875 34.375 68.75V62.1875L33.125 62.0313C29.6875 61.4063 26.4062 60.1562 23.2812 57.9687L22.1875 57.1875L17.6563 61.875C17.0313 62.5 16.0937 62.5 15.4687 61.875L13.2812 59.6875C12.6562 59.0625 12.6562 58.125 13.2812 57.5L17.8125 52.8125L17.0312 51.7187C14.8437 48.5937 13.4375 45.3125 12.9688 41.875L12.8125 40.625H6.25C5.3125 40.625 4.6875 40 4.6875 39.0625V35.9375C4.6875 35 5.3125 34.375 6.25 34.375H12.8125L12.9688 33.125C13.5938 29.6875 14.8437 26.4062 17.0312 23.2812L17.8125 22.1875L13.125 17.6563C12.8125 17.3438 12.6563 17.0313 12.6563 16.5625C12.6563 16.0938 12.8125 15.7812 13.125 15.4687L15.3125 13.2812C15.9375 12.6562 16.875 12.6562 17.5 13.2812L22.0313 17.8125L23.125 17.0312C26.0938 14.8437 29.5313 13.4375 32.9688 12.9688L34.2187 12.8125V6.25C34.2187 5.3125 34.8437 4.6875 35.7812 4.6875H38.9062C39.8437 4.6875 40.4687 5.3125 40.4687 6.25V12.8125L41.7188 12.9688C45.1563 13.5938 48.4375 14.8437 51.5625 17.0312L52.6563 17.8125L57.3438 13.125C57.9688 12.5 58.9062 12.5 59.5312 13.125L61.7188 15.3125C62.3438 15.9375 62.3438 16.875 61.7188 17.5L57.5 22.1875L58.2812 23.2812C60.1562 26.0937 61.5625 29.375 62.3438 33.125L62.5 34.375H68.75C69.6875 34.375 70.3125 35 70.3125 35.9375V39.0625Z" fill="white"/>
</svg>
