<svg width="100" height="100" viewBox="0 0 100 100" fill="none" xmlns="http://www.w3.org/2000/svg">
<path d="M37.5 16.1765C26.25 16.1765 17.1875 24.7059 17.1875 35.2942C17.1875 45.8824 26.25 54.4118 37.5 54.4118C48.75 54.4118 57.8125 45.8824 57.8125 35.2942C57.8125 24.7059 48.75 16.1765 37.5 16.1765ZM37.5 51.4706C27.9688 51.4706 20.3125 44.2647 20.3125 35.2942C20.3125 26.3236 27.9688 19.1177 37.5 19.1177C47.0312 19.1177 54.6875 26.3236 54.6875 35.2942C54.6875 44.2647 47.0312 51.4706 37.5 51.4706Z" fill="white"/>
<path d="M68.75 29.4118H65C64.2187 26.3235 62.9688 23.5294 61.4062 21.1765L63.9063 18.5294C65.7812 16.7647 65.7812 14.1176 63.9063 12.3529L61.7188 10.2941C59.8438 8.5294 56.875 8.5294 55.1562 10.2941L52.3438 12.9412C49.5312 11.1765 46.7188 10.1471 43.5938 9.55882V5.88235C43.5938 3.38235 41.5625 1.47058 38.9062 1.47058H35.7812C33.125 1.47058 31.0938 3.38235 31.0938 5.88235V9.55882C28.125 10.1471 25.1562 11.3235 22.3438 12.9412L19.6875 10.4412C17.8125 8.67646 15 8.67646 13.125 10.4412L10.9375 12.5C10 13.3823 9.53125 14.4118 9.53125 15.5882C9.53125 16.7647 10 17.7941 10.9375 18.6765L13.75 21.1765C12.0312 23.8235 10.7812 26.4706 10.1562 29.4118H6.25C3.59375 29.4118 1.5625 31.3235 1.5625 33.8235V36.7647C1.5625 39.2647 3.59375 41.1765 6.25 41.1765H10.1562C10.7812 43.9706 12.0312 46.7647 13.9062 49.4118L11.25 52.0588C9.375 53.8235 9.375 56.4706 11.25 58.2353L13.2812 60.2941C15.1562 62.0588 17.9688 62.0588 19.8438 60.2941L22.5 57.6471C25.3125 59.2647 28.125 60.4412 31.25 61.0294V64.7059C31.25 67.2059 33.2812 69.1176 35.9375 69.1176H39.0625C41.7188 69.1176 43.75 67.2059 43.75 64.7059V61.1765C47.0312 60.4412 49.8437 59.2647 52.5 57.7941L55.1562 60.1471C57.0312 61.9118 59.8438 61.9118 61.7188 60.1471L63.9063 58.0882C65.7812 56.3235 65.7812 53.6765 63.9063 51.9118L61.25 49.4118C63.125 46.7647 64.2188 44.1176 64.8438 41.1765H68.75C71.4062 41.1765 73.4375 39.2647 73.4375 36.7647V33.8235C73.4375 31.3235 71.4062 29.4118 68.75 29.4118ZM70.3125 36.7647C70.3125 37.6471 69.6875 38.2353 68.75 38.2353H62.1875L62.0312 39.4118C61.4062 42.647 60.1562 45.7353 57.9687 48.6765L57.1875 49.7059L61.7188 53.9706C62.0312 54.2647 62.1875 54.5588 62.1875 55C62.1875 55.4412 62.0312 55.7353 61.7188 56.0294L59.5312 58.0882C58.9062 58.6765 57.9688 58.6765 57.3438 58.0882L52.8125 53.9706L51.7187 54.7059C48.9062 56.6176 45.625 57.9412 41.875 58.5294L40.625 58.8235V64.7059C40.625 65.5882 40 66.1765 39.0625 66.1765H35.9375C35 66.1765 34.375 65.5882 34.375 64.7059V58.5294L33.125 58.3823C29.6875 57.7941 26.4062 56.6176 23.2812 54.5588L22.1875 53.8235L17.6562 58.2353C17.0312 58.8235 16.0937 58.8235 15.4687 58.2353L13.2812 56.1765C12.6562 55.5882 12.6562 54.7059 13.2812 54.1176L17.8125 49.7059L17.0312 48.6765C14.8437 45.7353 13.4375 42.647 12.9688 39.4118L12.8125 38.2353H6.25C5.3125 38.2353 4.6875 37.6471 4.6875 36.7647V33.8235C4.6875 32.9412 5.3125 32.3529 6.25 32.3529H12.8125L12.9688 31.1765C13.5938 27.9412 14.8437 24.8529 17.0312 21.9118L17.8125 20.8823L13.125 16.6176C12.8125 16.3235 12.6563 16.0294 12.6563 15.5882C12.6563 15.1471 12.8125 14.8529 13.125 14.5588L15.3125 12.5C15.9375 11.9118 16.875 11.9118 17.5 12.5L22.0312 16.7647L23.125 16.0294C26.0938 13.9706 29.5312 12.6471 32.9688 12.2059L34.2188 12.0588V5.88235C34.2188 4.99999 34.8438 4.41176 35.7812 4.41176H38.9062C39.8438 4.41176 40.4688 4.99999 40.4688 5.88235V12.0588L41.7188 12.2059C45.1562 12.7941 48.4375 13.9706 51.5625 16.0294L52.6562 16.7647L57.3438 12.3529C57.9688 11.7647 58.9062 11.7647 59.5312 12.3529L61.7188 14.4118C62.3438 15 62.3438 15.8823 61.7188 16.4706L57.5 20.8823L58.2812 21.9118C60.1562 24.5588 61.5625 27.6471 62.3438 31.1765L62.5 32.3529H68.75C69.6875 32.3529 70.3125 32.9412 70.3125 33.8235V36.7647Z" fill="white"/>
<g clip-path="url(#clip0_13_117)">
<path d="M75 64.8589C67.5 64.8589 61.4584 70.3675 61.4584 77.2057C61.4584 84.0439 67.5 89.5525 75 89.5525C82.5 89.5525 88.5417 84.0439 88.5417 77.2057C88.5417 70.3675 82.5 64.8589 75 64.8589ZM75 87.653C68.6459 87.653 63.5417 82.9992 63.5417 77.2057C63.5417 71.4122 68.6459 66.7584 75 66.7584C81.3542 66.7584 86.4584 71.4122 86.4584 77.2057C86.4584 82.9992 81.3542 87.653 75 87.653Z" fill="white"/>
<path d="M95.8334 73.4067H93.3334C92.8125 71.4122 91.9792 69.6077 90.9375 68.088L92.6042 66.3785C93.8542 65.2388 93.8542 63.5292 92.6042 62.3895L91.1459 61.0599C89.8959 59.9202 87.9167 59.9202 86.7709 61.0599L84.8959 62.7694C83.0209 61.6297 81.1459 60.9649 79.0625 60.585V58.2106C79.0625 56.596 77.7084 55.3613 75.9375 55.3613H73.8542C72.0834 55.3613 70.7292 56.596 70.7292 58.2106V60.585C68.75 60.9649 66.7709 61.7247 64.8959 62.7694L63.125 61.1548C61.875 60.0151 60 60.0151 58.75 61.1548L57.2917 62.4845C56.6667 63.0543 56.3542 63.7192 56.3542 64.479C56.3542 65.2388 56.6667 65.9036 57.2917 66.4735L59.1667 68.088C58.0209 69.7976 57.1875 71.5072 56.7709 73.4067H54.1667C52.3959 73.4067 51.0417 74.6414 51.0417 76.2559V78.1554C51.0417 79.77 52.3959 81.0047 54.1667 81.0047H56.7709C57.1875 82.8092 58.0209 84.6138 59.2709 86.3233L57.5 88.0329C56.25 89.1726 56.25 90.8822 57.5 92.0219L58.8542 93.3515C60.1042 94.4912 61.9792 94.4912 63.2292 93.3515L65 91.642C66.875 92.6867 68.75 93.4465 70.8334 93.8264V96.2008C70.8334 97.8154 72.1875 99.0501 73.9584 99.0501H76.0417C77.8125 99.0501 79.1667 97.8154 79.1667 96.2008V93.9214C81.3542 93.4465 83.2292 92.6867 85 91.7369L86.7709 93.2565C88.0209 94.3963 89.8959 94.3963 91.1459 93.2565L92.6042 91.9269C93.8542 90.7872 93.8542 89.0776 92.6042 87.9379L90.8334 86.3233C92.0834 84.6138 92.8125 82.9042 93.2292 81.0047H95.8334C97.6042 81.0047 98.9584 79.77 98.9584 78.1554V76.2559C98.9584 74.6414 97.6042 73.4067 95.8334 73.4067ZM96.875 78.1554C96.875 78.7253 96.4584 79.1052 95.8334 79.1052H91.4584L91.3542 79.865C90.9375 81.9545 90.1042 83.9489 88.6459 85.8485L88.125 86.5133L91.1459 89.2676C91.3542 89.4575 91.4584 89.6475 91.4584 89.9324C91.4584 90.2173 91.3542 90.4073 91.1459 90.5972L89.6875 91.9269C89.2709 92.3068 88.6459 92.3068 88.2292 91.9269L85.2084 89.2676L84.4792 89.7425C82.6042 90.9771 80.4167 91.8319 77.9167 92.2118L77.0834 92.4018V96.2008C77.0834 96.7706 76.6667 97.1505 76.0417 97.1505H73.9584C73.3334 97.1505 72.9167 96.7706 72.9167 96.2008V92.2118L72.0834 92.1168C69.7917 91.7369 67.6042 90.9771 65.5209 89.6475L64.7917 89.1726L61.7709 92.0219C61.3542 92.4018 60.7292 92.4018 60.3125 92.0219L58.8542 90.6922C58.4375 90.3123 58.4375 89.7425 58.8542 89.3626L61.875 86.5133L61.3542 85.8485C59.8959 83.9489 58.9584 81.9545 58.6459 79.865L58.5417 79.1052H54.1667C53.5417 79.1052 53.125 78.7253 53.125 78.1554V76.2559C53.125 75.6861 53.5417 75.3062 54.1667 75.3062H58.5417L58.6459 74.5464C59.0625 72.4569 59.8959 70.4624 61.3542 68.5629L61.875 67.8981L58.75 65.1438C58.5417 64.9539 58.4375 64.7639 58.4375 64.479C58.4375 64.194 58.5417 64.0041 58.75 63.8141L60.2084 62.4845C60.625 62.1046 61.25 62.1046 61.6667 62.4845L64.6875 65.2388L65.4167 64.7639C67.3959 63.4342 69.6875 62.5795 71.9792 62.2945L72.8125 62.1996V58.2106C72.8125 57.6407 73.2292 57.2608 73.8542 57.2608H75.9375C76.5625 57.2608 76.9792 57.6407 76.9792 58.2106V62.1996L77.8125 62.2945C80.1042 62.6744 82.2917 63.4342 84.375 64.7639L85.1042 65.2388L88.2292 62.3895C88.6459 62.0096 89.2709 62.0096 89.6875 62.3895L91.1459 63.7192C91.5625 64.0991 91.5625 64.6689 91.1459 65.0488L88.3334 67.8981L88.8542 68.5629C90.1042 70.2725 91.0417 72.267 91.5625 74.5464L91.6667 75.3062H95.8334C96.4584 75.3062 96.875 75.6861 96.875 76.2559V78.1554Z" fill="white"/>
</g>
<defs>
<clipPath id="clip0_13_117">
<rect width="50" height="45.5882" fill="white" transform="translate(50 54.4116)"/>
</clipPath>
</defs>
</svg>
