<svg width="50" height="50" viewBox="0 0 50 50" fill="none" xmlns="http://www.w3.org/2000/svg">
<path d="M25 11.4583C17.5 11.4583 11.4584 17.4999 11.4584 24.9999C11.4584 32.4999 17.5 38.5416 25 38.5416C32.5 38.5416 38.5417 32.4999 38.5417 24.9999C38.5417 17.4999 32.5 11.4583 25 11.4583ZM25 36.4582C18.6459 36.4582 13.5417 31.3541 13.5417 24.9999C13.5417 18.6457 18.6459 13.5416 25 13.5416C31.3542 13.5416 36.4584 18.6457 36.4584 24.9999C36.4584 31.3541 31.3542 36.4582 25 36.4582Z" fill="white"/>
<path d="M45.8334 20.8333H43.3334C42.8125 18.6458 41.9792 16.6666 40.9375 15L42.6042 13.125C43.8542 11.875 43.8542 9.99996 42.6042 8.74996L41.1459 7.29163C39.8959 6.04163 37.9167 6.04163 36.7709 7.29163L34.8959 9.16663C33.0209 7.91663 31.1459 7.18746 29.0625 6.77079V4.16663C29.0625 2.39579 27.7084 1.04163 25.9375 1.04163H23.8542C22.0834 1.04163 20.7292 2.39579 20.7292 4.16663V6.77079C18.75 7.18746 16.7709 8.02079 14.8959 9.16663L13.125 7.39579C11.875 6.14579 10 6.14579 8.75002 7.39579L7.29169 8.85413C6.66669 9.47913 6.35419 10.2083 6.35419 11.0416C6.35419 11.875 6.66669 12.6041 7.29169 13.2291L9.16669 15C8.02085 16.875 7.18752 18.75 6.77085 20.8333H4.16669C2.39585 20.8333 1.04169 22.1875 1.04169 23.9583V26.0416C1.04169 27.8125 2.39585 29.1666 4.16669 29.1666H6.77085C7.18752 31.1458 8.02085 33.125 9.27085 35L7.50002 36.875C6.25002 38.125 6.25002 40 7.50002 41.25L8.85419 42.7083C10.1042 43.9583 11.9792 43.9583 13.2292 42.7083L15 40.8333C16.875 41.9791 18.75 42.8125 20.8334 43.2291V45.8333C20.8334 47.6041 22.1875 48.9583 23.9584 48.9583H26.0417C27.8125 48.9583 29.1667 47.6041 29.1667 45.8333V43.3333C31.3542 42.8125 33.2292 41.9791 35 40.9375L36.7709 42.6041C38.0209 43.8541 39.8959 43.8541 41.1459 42.6041L42.6042 41.1458C43.8542 39.8958 43.8542 38.0208 42.6042 36.7708L40.8334 35C42.0834 33.125 42.8125 31.25 43.2292 29.1666H45.8334C47.6042 29.1666 48.9584 27.8125 48.9584 26.0416V23.9583C48.9584 22.1875 47.6042 20.8333 45.8334 20.8333ZM46.875 26.0416C46.875 26.6666 46.4584 27.0833 45.8334 27.0833H41.4584L41.3542 27.9166C40.9375 30.2083 40.1042 32.3958 38.6459 34.4791L38.125 35.2083L41.1459 38.2291C41.3542 38.4375 41.4584 38.6458 41.4584 38.9583C41.4584 39.2708 41.3542 39.4791 41.1459 39.6875L39.6875 41.1458C39.2709 41.5625 38.6459 41.5625 38.2292 41.1458L35.2084 38.2291L34.4792 38.75C32.6042 40.1041 30.4167 41.0416 27.9167 41.4583L27.0834 41.6666V45.8333C27.0834 46.4583 26.6667 46.875 26.0417 46.875H23.9584C23.3334 46.875 22.9167 46.4583 22.9167 45.8333V41.4583L22.0834 41.3541C19.7917 40.9375 17.6042 40.1041 15.5209 38.6458L14.7917 38.125L11.7709 41.25C11.3542 41.6666 10.7292 41.6666 10.3125 41.25L8.85419 39.7916C8.43752 39.375 8.43752 38.75 8.85419 38.3333L11.875 35.2083L11.3542 34.4791C9.89585 32.3958 8.95835 30.2083 8.64585 27.9166L8.54169 27.0833H4.16669C3.54169 27.0833 3.12502 26.6666 3.12502 26.0416V23.9583C3.12502 23.3333 3.54169 22.9166 4.16669 22.9166H8.54169L8.64585 22.0833C9.06252 19.7916 9.89585 17.6041 11.3542 15.5208L11.875 14.7916L8.75002 11.7708C8.54169 11.5625 8.43752 11.3541 8.43752 11.0416C8.43752 10.7291 8.54169 10.5208 8.75002 10.3125L10.2084 8.85413C10.625 8.43746 11.25 8.43746 11.6667 8.85413L14.6875 11.875L15.4167 11.3541C17.3959 9.89579 19.6875 8.95829 21.9792 8.64579L22.8125 8.54163V4.16663C22.8125 3.54163 23.2292 3.12496 23.8542 3.12496H25.9375C26.5625 3.12496 26.9792 3.54163 26.9792 4.16663V8.54163L27.8125 8.64579C30.1042 9.06246 32.2917 9.89579 34.375 11.3541L35.1042 11.875L38.2292 8.74996C38.6459 8.33329 39.2709 8.33329 39.6875 8.74996L41.1459 10.2083C41.5625 10.625 41.5625 11.25 41.1459 11.6666L38.3334 14.7916L38.8542 15.5208C40.1042 17.3958 41.0417 19.5833 41.5625 22.0833L41.6667 22.9166H45.8334C46.4584 22.9166 46.875 23.3333 46.875 23.9583V26.0416Z" fill="white"/>
</svg>
