<svg width="166" height="165" viewBox="0 0 166 165" fill="none" xmlns="http://www.w3.org/2000/svg">
<path d="M130.932 78.0865L87.4405 34.8565C86.2292 33.67 84.5968 33.0049 82.8962 33.0049C81.1956 33.0049 79.5632 33.67 78.3519 34.8565L69.3465 43.849L80.8004 55.234C82.1507 54.7731 83.6042 54.6999 84.9944 55.0226C86.3846 55.3453 87.6551 56.051 88.6603 57.0587C89.6654 58.0664 90.3644 59.3353 90.6772 60.7198C90.9899 62.1043 90.9037 63.5485 90.4285 64.8865L101.467 75.859C102.76 75.3905 104.157 75.278 105.509 75.5335C106.861 75.7889 108.118 76.4027 109.148 77.31C110.178 78.2173 110.942 79.3844 111.359 80.6878C111.776 81.9912 111.832 83.3826 111.519 84.7146C111.206 86.0467 110.537 87.2701 109.583 88.2553C108.628 89.2405 107.423 89.9509 106.096 90.3115C104.768 90.6721 103.367 90.6694 102.041 90.3037C100.715 89.938 99.5133 89.2229 98.5625 88.234C97.5028 87.1719 96.7805 85.8237 96.4853 84.357C96.1902 82.8902 96.3352 81.3695 96.9025 79.984L86.6105 70.1253V97.0203C87.3431 97.4003 88.0145 97.8869 88.6025 98.464C89.7744 99.6193 90.5405 101.119 90.7874 102.741C91.0342 104.363 90.7485 106.021 89.9728 107.469C89.197 108.917 87.9724 110.078 86.4805 110.78C84.9886 111.482 83.309 111.687 81.6905 111.366C80.0721 111.044 78.601 110.212 77.4955 108.994C76.3899 107.776 75.7088 106.236 75.553 104.603C75.3972 102.97 75.7751 101.33 76.6306 99.9269C77.4861 98.524 78.7737 97.4324 80.3025 96.814V69.424C79.3643 69.0535 78.5105 68.4998 77.7913 67.7957C77.0722 67.0915 76.5023 66.2513 76.1154 65.3245C75.7285 64.3977 75.5325 63.4033 75.5389 62.3999C75.5452 61.3965 75.7539 60.4046 76.1525 59.4828L64.906 48.2628L35.0675 77.8803C33.8737 79.0843 33.2046 80.7068 33.2046 82.3972C33.2046 84.0875 33.8737 85.71 35.0675 86.914L78.5595 130.144C79.7707 131.331 81.4031 131.996 83.1037 131.996C84.8043 131.996 86.4367 131.331 87.648 130.144L130.932 87.1203C132.126 85.9163 132.795 84.2938 132.795 82.6034C132.795 80.913 132.126 79.2905 130.932 78.0865Z" fill="white"/>
</svg>
