<svg width="100" height="99" viewBox="0 0 100 99" fill="none" xmlns="http://www.w3.org/2000/svg">
<path d="M97.7279 45.0817L54.2359 1.85165C53.0246 0.665133 51.3923 0 49.6916 0C47.991 0 46.3587 0.665133 45.1474 1.85165L36.1419 10.8442L47.5959 22.2292C48.9461 21.7683 50.3996 21.695 51.7898 22.0177C53.18 22.3404 54.4506 23.0461 55.4557 24.0538C56.4608 25.0615 57.1598 26.3304 57.4726 27.7149C57.7853 29.0995 57.6991 30.5436 57.2239 31.8816L68.2629 42.8541C69.5558 42.3857 70.9521 42.2732 72.304 42.5286C73.656 42.784 74.9134 43.3978 75.9432 44.3051C76.973 45.2124 77.7371 46.3795 78.1545 47.6829C78.5719 48.9864 78.6272 50.3777 78.3145 51.7098C78.0018 53.0418 77.3327 54.2652 76.378 55.2504C75.4234 56.2356 74.2186 56.946 72.8911 57.3066C71.5636 57.6672 70.1628 57.6645 68.8367 57.2988C67.5107 56.9331 66.3087 56.218 65.3579 55.2291C64.2982 54.1671 63.5759 52.8188 63.2807 51.3521C62.9856 49.8853 63.1307 48.3647 63.6979 46.9791L53.4059 37.1204V64.0154C54.1385 64.3954 54.8099 64.882 55.3979 65.4592C56.5698 66.6144 57.336 68.1142 57.5828 69.7364C57.8296 71.3585 57.544 73.0165 56.7682 74.4645C55.9924 75.9125 54.7678 77.0735 53.2759 77.7753C51.7841 78.4771 50.1044 78.6824 48.4859 78.3606C46.8675 78.0389 45.3964 77.2073 44.2909 75.9891C43.1854 74.771 42.5042 73.2311 42.3484 71.5979C42.1926 69.9647 42.5705 68.325 43.426 66.922C44.2815 65.5191 45.5691 64.4275 47.0979 63.8091V36.4192C46.1598 36.0486 45.3059 35.4949 44.5868 34.7908C43.8676 34.0866 43.2977 33.2464 42.9109 32.3196C42.524 31.3928 42.3279 30.3984 42.3343 29.395C42.3406 28.3917 42.5493 27.3998 42.9479 26.4779L31.7014 15.2579L1.86288 44.8754C0.669164 46.0794 0 47.7019 0 49.3923C0 51.0827 0.669164 52.7052 1.86288 53.9091L45.3549 97.1391C46.5662 98.3257 48.1985 98.9908 49.8991 98.9908C51.5998 98.9908 53.2321 98.3257 54.4434 97.1391L97.7279 54.1154C98.9216 52.9114 99.5908 51.2889 99.5908 49.5985C99.5908 47.9081 98.9216 46.2856 97.7279 45.0817" fill="#FF6700"/>
</svg>
