<svg width="38" height="38" viewBox="0 0 38 38" fill="none" xmlns="http://www.w3.org/2000/svg">
<path fill-rule="evenodd" clip-rule="evenodd" d="M23.9371 37.9196C36.617 37.5532 37.8649 34.8841 37.8649 19.7312C37.8649 3.01121 36.3449 1.49121 19.6249 1.49121C2.90494 1.49121 1.38495 3.01121 1.38495 19.7312C1.38495 34.9236 2.64046 37.5669 15.4115 37.9226C15.5224 37.7843 15.5635 37.611 15.5635 37.4347C15.5635 37.0547 15.5483 33.1544 15.5407 31.8122C10.9245 32.7835 9.95015 29.6553 9.95015 29.6553C9.19471 27.7979 8.10638 27.3024 8.10638 27.3024C6.60006 26.3052 8.22039 26.325 8.22039 26.325C9.8863 26.439 10.7633 27.9833 10.7633 27.9833C12.2438 30.4412 14.6485 29.7313 15.5939 29.3194C15.7443 28.2812 16.173 27.5714 16.6472 27.1701C12.9613 26.7643 9.08678 25.3841 9.08678 19.2205C9.08678 17.4649 9.7343 16.03 10.7953 14.9052C10.6235 14.4979 10.055 12.8623 10.9579 10.6492C10.9579 10.6492 12.3517 10.216 15.5224 12.2969C16.8463 11.9397 18.266 11.7619 19.6781 11.7558C21.0871 11.7619 22.5068 11.9397 23.8338 12.2969C27.003 10.216 28.3938 10.6492 28.3938 10.6492C29.2997 12.8623 28.7297 14.4979 28.5579 14.9052C29.6219 16.03 30.2649 17.4649 30.2649 19.2205C30.2649 25.3993 26.3843 26.7597 22.6862 27.1564C23.282 27.6535 23.8125 28.6354 23.8125 30.1356C23.8125 31.5736 23.8034 34.1165 23.7973 35.8022C23.7943 36.6367 23.7927 37.2599 23.7927 37.4347C23.7927 37.6004 23.8368 37.7752 23.9371 37.9196Z" fill="white"/>
</svg>
