<svg width="45" height="46" viewBox="0 0 45 46" fill="none" xmlns="http://www.w3.org/2000/svg">
<path d="M22.5 0.0175781C10.0749 0.0175781 0 10.0909 0 22.5176C0 34.9442 10.0739 45.0176 22.5 45.0176C34.9271 45.0176 45 34.9442 45 22.5176C45 10.0909 34.9271 0.0175781 22.5 0.0175781ZM22.5 6.74534C26.6114 6.74534 29.943 10.0781 29.943 14.1877C29.943 18.2983 26.6114 21.63 22.5 21.63C18.3906 21.63 15.059 18.2983 15.059 14.1877C15.059 10.0781 18.3906 6.74534 22.5 6.74534ZM22.4951 39.1349C18.3945 39.1349 14.6389 37.6415 11.7422 35.1696C11.0365 34.5677 10.6293 33.685 10.6293 32.759C10.6293 28.591 14.0025 25.2553 18.1712 25.2553H26.8308C31.0005 25.2553 34.3608 28.591 34.3608 32.759C34.3608 33.686 33.9556 34.5667 33.2489 35.1686C30.3532 37.6415 26.5966 39.1349 22.4951 39.1349Z" fill="white"/>
</svg>
