<svg width="43" height="43" viewBox="0 0 43 43" fill="none" xmlns="http://www.w3.org/2000/svg">
<path d="M21.237 12.5764C15.9654 12.5764 11.5975 16.869 11.5975 22.2159C11.5975 27.5628 15.8901 31.8554 21.237 31.8554C26.584 31.8554 30.8765 27.4875 30.8765 22.2159C30.8765 16.9443 26.5086 12.5764 21.237 12.5764ZM21.237 28.3912C17.8482 28.3912 15.0617 25.6048 15.0617 22.2159C15.0617 18.827 17.8482 16.0406 21.237 16.0406C24.6259 16.0406 27.4123 18.827 27.4123 22.2159C27.4123 25.6048 24.6259 28.3912 21.237 28.3912Z" fill="#FFFEFE"/>
<path d="M31.253 14.5344C32.4592 14.5344 33.437 13.5566 33.437 12.3505C33.437 11.1443 32.4592 10.1665 31.253 10.1665C30.0469 10.1665 29.0691 11.1443 29.0691 12.3505C29.0691 13.5566 30.0469 14.5344 31.253 14.5344Z" fill="#FFFEFE"/>
<path d="M36.9012 6.7024C34.9432 4.66907 32.1568 3.61475 28.9938 3.61475H13.4802C6.92839 3.61475 2.56049 7.98265 2.56049 14.5345V29.9728C2.56049 33.2111 3.61481 35.9975 5.72345 38.0308C7.75678 39.9888 10.4679 40.9678 13.5556 40.9678H28.9185C32.1568 40.9678 34.8679 39.9135 36.8259 38.0308C38.8593 36.0728 39.9136 33.2864 39.9136 30.0481V14.5345C39.9136 11.3715 38.8593 8.66043 36.9012 6.7024ZM36.6 30.0481C36.6 32.3827 35.7716 34.2654 34.416 35.5456C33.0605 36.8259 31.1778 37.5036 28.9185 37.5036H13.5556C11.2963 37.5036 9.41357 36.8259 8.05802 35.5456C6.70246 34.1901 6.02468 32.3073 6.02468 29.9728V14.5345C6.02468 12.2752 6.70246 10.3925 8.05802 9.03697C9.33827 7.75672 11.2963 7.07894 13.5556 7.07894H29.0691C31.3284 7.07894 33.2111 7.75672 34.5667 9.11228C35.8469 10.4678 36.6 12.3505 36.6 14.5345V30.0481Z" fill="#FFFEFE"/>
</svg>
