<svg width="32" height="32" viewBox="0 0 32 32" fill="none" xmlns="http://www.w3.org/2000/svg">
<path d="M16 28.72C15.6045 28.721 15.2127 28.6437 14.8471 28.4927C14.4816 28.3417 14.1495 28.1199 13.87 27.84L3.56999 17.54C2.75632 16.7175 2.11448 15.7413 1.68183 14.6683C1.24919 13.5952 1.0344 12.4469 1.04999 11.29C1.05783 10.2298 1.27474 9.18164 1.68832 8.20545C2.10189 7.22925 2.70399 6.34424 3.46013 5.6011C4.21627 4.85796 5.1116 4.27131 6.09482 3.87473C7.07804 3.47815 8.12985 3.27945 9.18999 3.29C10.2691 3.27913 11.3394 3.48508 12.3374 3.89562C13.3355 4.30617 14.2409 4.91296 15 5.68L16 6.68L16.82 5.86C18.2359 4.40657 20.1306 3.51551 22.1531 3.35187C24.1756 3.18824 26.1888 3.7631 27.82 4.97C28.7485 5.68505 29.514 6.58972 30.0656 7.62376C30.6171 8.6578 30.942 9.79749 31.0187 10.9669C31.0953 12.1364 30.9219 13.3087 30.51 14.4059C30.0982 15.5031 29.4572 16.4999 28.63 17.33L18.13 27.84C17.8505 28.1199 17.5184 28.3417 17.1529 28.4927C16.7873 28.6437 16.3955 28.721 16 28.72ZM9.14999 5.28C7.56051 5.27838 6.03275 5.89522 4.88999 7C4.30738 7.56054 3.84407 8.23305 3.52788 8.97713C3.21169 9.72121 3.04914 10.5215 3.04999 11.33C3.04122 12.2193 3.20907 13.1015 3.5438 13.9255C3.87854 14.7494 4.3735 15.4988 4.99999 16.13L15.3 26.43C15.3929 26.5237 15.5035 26.5981 15.6254 26.6489C15.7473 26.6997 15.878 26.7258 16.01 26.7258C16.142 26.7258 16.2727 26.6997 16.3946 26.6489C16.5164 26.5981 16.627 26.5237 16.72 26.43L27.23 15.91C27.8469 15.28 28.3236 14.5267 28.6286 13.6994C28.9337 12.8721 29.0602 11.9897 29 11.11C28.9466 10.2213 28.7018 9.35466 28.2824 8.56935C27.863 7.78404 27.2789 7.09862 26.57 6.56C25.3261 5.64289 23.7913 5.20926 22.2514 5.33988C20.7115 5.4705 19.2716 6.15648 18.2 7.27L16.71 8.8C16.617 8.89373 16.5064 8.96812 16.3846 9.01889C16.2627 9.06966 16.132 9.0958 16 9.0958C15.868 9.0958 15.7373 9.06966 15.6154 9.01889C15.4935 8.96812 15.3829 8.89373 15.29 8.8L13.59 7.1C12.4191 5.93928 10.8387 5.28557 9.18999 5.28H9.14999Z" fill="#ED1365"/>
</svg>
