<svg width="35" height="35" viewBox="0 0 35 35" fill="none" xmlns="http://www.w3.org/2000/svg">
<g clip-path="url(#clip0_192_2)">
<path fill-rule="evenodd" clip-rule="evenodd" d="M30.7238 0C33.084 0 35 1.91611 35 4.27615V30.7238C35 33.0839 33.0839 35 30.7238 35H4.27615C1.91611 35 0 33.0839 0 30.7238V4.27615C0 1.91611 1.91604 0 4.27615 0H30.7238V0ZM10.969 28.935V13.5051H5.83933V28.935H10.969ZM29.4629 28.935V20.0866C29.4629 15.3471 26.9324 13.1423 23.5579 13.1423C20.837 13.1423 19.6181 14.6387 18.9357 15.6898V13.5051H13.8073C13.8753 14.9531 13.8073 28.935 13.8073 28.935H18.9356V20.3179C18.9356 19.8566 18.9688 19.3956 19.1047 19.0659C19.4748 18.1448 20.3193 17.1905 21.7362 17.1905C23.5911 17.1905 24.3343 18.6061 24.3343 20.6794V28.935H29.4629V28.935ZM8.43883 6.06498C6.68377 6.06498 5.53711 7.21882 5.53711 8.73113C5.53711 10.2117 6.64891 11.3973 8.37095 11.3973H8.40403C10.1927 11.3973 11.306 10.2117 11.306 8.73113C11.2729 7.22094 10.1958 6.06826 8.43883 6.06498V6.06498Z" fill="#FF6700"/>
</g>
<defs>
<clipPath id="clip0_192_2">
<rect width="35" height="35" fill="white"/>
</clipPath>
</defs>
</svg>
