<svg width="60" height="60" viewBox="0 0 60 60" fill="none" xmlns="http://www.w3.org/2000/svg">
<circle cx="30" cy="30" r="28" stroke="url(#paint0_linear_13_156)" stroke-width="4"/>
<mask id="mask0_13_156" style="mask-type:alpha" maskUnits="userSpaceOnUse" x="9" y="25" width="42" height="11">
<path d="M9.21 31.91H10.575V33.47C10.575 33.65 10.605 33.77 10.665 33.83C10.725 33.88 10.845 33.905 11.025 33.905H11.46C11.64 33.905 11.76 33.88 11.82 33.83C11.88 33.77 11.91 33.65 11.91 33.47V25.61H13.275V33.68C13.275 34.56 12.81 35 11.88 35H10.605C9.675 35 9.21 34.56 9.21 33.68V31.91ZM15.5218 33.632C15.7298 33.632 15.9098 33.708 16.0618 33.86C16.2138 34.012 16.2898 34.192 16.2898 34.4C16.2898 34.608 16.2138 34.788 16.0618 34.94C15.9098 35.092 15.7298 35.168 15.5218 35.168C15.3138 35.168 15.1338 35.092 14.9818 34.94C14.8298 34.788 14.7538 34.608 14.7538 34.4C14.7538 34.192 14.8298 34.012 14.9818 33.86C15.1338 33.708 15.3138 33.632 15.5218 33.632ZM21.8562 25.614C22.4282 25.614 22.8962 25.7007 23.2602 25.874C23.6329 26.0387 23.9622 26.2337 24.2482 26.459C24.4215 26.589 24.5515 26.6063 24.6382 26.511C24.7335 26.407 24.7985 26.1687 24.8332 25.796H25.1322C25.1149 26.1167 25.1019 26.5067 25.0932 26.966C25.0845 27.4253 25.0802 28.032 25.0802 28.786H24.7812C24.7205 28.4133 24.6642 28.1187 24.6122 27.902C24.5602 27.6767 24.4952 27.486 24.4172 27.33C24.3479 27.174 24.2525 27.018 24.1312 26.862C23.8625 26.5067 23.5245 26.251 23.1172 26.095C22.7099 25.9303 22.2809 25.848 21.8302 25.848C21.4055 25.848 21.0199 25.9563 20.6732 26.173C20.3352 26.381 20.0405 26.6843 19.7892 27.083C19.5465 27.4817 19.3559 27.9627 19.2172 28.526C19.0872 29.0893 19.0222 29.722 19.0222 30.424C19.0222 31.152 19.0959 31.7977 19.2432 32.361C19.3905 32.9157 19.5942 33.3837 19.8542 33.765C20.1229 34.1463 20.4349 34.4367 20.7902 34.636C21.1542 34.8267 21.5442 34.922 21.9602 34.922C22.3502 34.922 22.7575 34.844 23.1822 34.688C23.6069 34.532 23.9405 34.2807 24.1832 33.934C24.3739 33.6827 24.5039 33.4097 24.5732 33.115C24.6512 32.8203 24.7205 32.4087 24.7812 31.88H25.0802C25.0802 32.6687 25.0845 33.3057 25.0932 33.791C25.1019 34.2677 25.1149 34.6707 25.1322 35H24.8332C24.7985 34.6273 24.7379 34.3933 24.6512 34.298C24.5732 34.2027 24.4389 34.2157 24.2482 34.337C23.9275 34.5623 23.5852 34.7617 23.2212 34.935C22.8659 35.0997 22.4065 35.182 21.8432 35.182C21.0199 35.182 20.2962 34.9957 19.6722 34.623C19.0569 34.2503 18.5759 33.713 18.2292 33.011C17.8912 32.309 17.7222 31.464 17.7222 30.476C17.7222 29.5053 17.8999 28.656 18.2552 27.928C18.6105 27.2 19.0959 26.6323 19.7112 26.225C20.3352 25.8177 21.0502 25.614 21.8562 25.614ZM26.5004 35.418C26.3611 35.418 26.2511 35.3007 26.1704 35.066C26.0897 34.8313 26.0494 34.5673 26.0494 34.274C26.0494 33.922 26.1081 33.504 26.2254 33.02C26.3427 32.536 26.4967 32.0263 26.6874 31.491C26.8781 30.9557 27.0907 30.4313 27.3254 29.918C27.5674 29.4047 27.8131 28.939 28.0624 28.521C28.3117 28.103 28.5464 27.7693 28.7664 27.52C28.9864 27.2707 29.1771 27.146 29.3384 27.146C29.4704 27.146 29.5621 27.2267 29.6134 27.388C29.6721 27.542 29.7014 27.6923 29.7014 27.839C29.7014 28.0443 29.6537 28.2937 29.5584 28.587C29.4704 28.8803 29.3457 29.1957 29.1844 29.533C29.0231 29.863 28.8361 30.1893 28.6234 30.512C28.4107 30.8347 28.1797 31.1317 27.9304 31.403C27.6811 31.667 27.4281 31.876 27.1714 32.03C27.0834 32.2427 27.0064 32.481 26.9404 32.745C26.8817 33.009 26.8377 33.2693 26.8084 33.526C26.7791 33.7753 26.7644 33.999 26.7644 34.197C26.7644 34.2777 26.7644 34.3473 26.7644 34.406C26.7717 34.4647 26.7791 34.5197 26.7864 34.571C26.8891 34.2703 26.9991 33.9807 27.1164 33.702C27.2411 33.416 27.3731 33.1557 27.5124 32.921C27.6517 32.679 27.7984 32.47 27.9524 32.294C28.1137 32.1107 28.2824 31.9713 28.4584 31.876C28.6344 31.7733 28.8214 31.722 29.0194 31.722C29.2247 31.722 29.3861 31.7733 29.5034 31.876C29.6281 31.9713 29.7161 32.096 29.7674 32.25C29.8261 32.3967 29.8554 32.5507 29.8554 32.712C29.8554 32.9393 29.8151 33.1593 29.7344 33.372C29.6611 33.5847 29.5841 33.79 29.5034 33.988C29.4227 34.186 29.3824 34.3767 29.3824 34.56C29.3824 34.7067 29.4117 34.813 29.4704 34.879C29.5364 34.945 29.6171 34.978 29.7124 34.978C29.8811 34.978 30.0681 34.8973 30.2734 34.736C30.4861 34.5747 30.6951 34.362 30.9004 34.098C31.1057 33.8267 31.2817 33.5333 31.4284 33.218L31.5714 33.35C31.4174 33.7093 31.2304 34.0357 31.0104 34.329C30.7904 34.615 30.5484 34.8423 30.2844 35.011C30.0204 35.1797 29.7454 35.264 29.4594 35.264C29.2101 35.264 29.0194 35.198 28.8874 35.066C28.7627 34.934 28.7004 34.769 28.7004 34.571C28.7004 34.417 28.7297 34.2447 28.7884 34.054C28.8471 33.8633 28.9021 33.669 28.9534 33.471C29.0121 33.273 29.0414 33.086 29.0414 32.91C29.0414 32.7193 29.0011 32.5837 28.9204 32.503C28.8397 32.4223 28.7407 32.382 28.6234 32.382C28.4401 32.382 28.2751 32.4553 28.1284 32.602C27.9817 32.7487 27.8461 32.9393 27.7214 33.174C27.6041 33.4013 27.4904 33.6433 27.3804 33.9C27.2777 34.1567 27.1787 34.4023 27.0834 34.637C26.9881 34.8643 26.8927 35.0513 26.7974 35.198C26.7021 35.3447 26.6031 35.418 26.5004 35.418ZM27.3144 31.601C27.5197 31.4397 27.7177 31.2343 27.9084 30.985C28.1064 30.7357 28.2897 30.4717 28.4584 30.193C28.6271 29.907 28.7774 29.6283 28.9094 29.357C29.0414 29.0857 29.1441 28.84 29.2174 28.62C29.2907 28.4 29.3274 28.235 29.3274 28.125C29.3274 28.0883 29.3237 28.0663 29.3164 28.059C29.3091 28.0443 29.2981 28.037 29.2834 28.037C29.2321 28.037 29.1257 28.1397 28.9644 28.345C28.8104 28.543 28.6307 28.8107 28.4254 29.148C28.2201 29.4853 28.0184 29.8667 27.8204 30.292C27.6224 30.7173 27.4537 31.1537 27.3144 31.601ZM31.7428 35.517C31.5155 35.517 31.3248 35.44 31.1708 35.286C31.0095 35.1393 30.9288 34.912 30.9288 34.604C30.9288 34.34 30.9875 34.0577 31.1048 33.757C31.2222 33.449 31.3835 33.1483 31.5888 32.855C31.7942 32.5543 32.0252 32.283 32.2818 32.041C32.5458 31.7917 32.8208 31.5937 33.1068 31.447C33.4002 31.3003 33.6898 31.227 33.9758 31.227C34.2618 31.227 34.5002 31.304 34.6908 31.458C34.8815 31.6047 34.9768 31.8027 34.9768 32.052C34.9768 32.2353 34.9255 32.36 34.8228 32.426C34.7275 32.492 34.5992 32.525 34.4378 32.525C34.4525 32.4663 34.4635 32.404 34.4708 32.338C34.4855 32.2647 34.4928 32.1987 34.4928 32.14C34.4928 31.9713 34.4525 31.8283 34.3718 31.711C34.2912 31.5863 34.1518 31.524 33.9538 31.524C33.7485 31.524 33.5395 31.5973 33.3268 31.744C33.1142 31.8833 32.9088 32.074 32.7108 32.316C32.5128 32.5507 32.3368 32.8073 32.1828 33.086C32.0288 33.3647 31.9078 33.6397 31.8198 33.911C31.7318 34.1823 31.6878 34.4243 31.6878 34.637C31.6878 34.923 31.7868 35.066 31.9848 35.066C32.1535 35.066 32.3368 34.989 32.5348 34.835C32.7328 34.6737 32.9345 34.472 33.1398 34.23C33.3525 33.9807 33.5542 33.724 33.7448 33.46C33.9355 33.196 34.1042 32.954 34.2508 32.734C34.2802 32.69 34.2985 32.668 34.3058 32.668C34.3498 32.6753 34.4048 32.69 34.4708 32.712C34.5442 32.734 34.6065 32.7633 34.6578 32.8C34.7092 32.8367 34.7348 32.8843 34.7348 32.943C34.7348 33.009 34.7018 33.1007 34.6358 33.218C34.5698 33.328 34.4965 33.4563 34.4158 33.603C34.3352 33.7497 34.2618 33.9 34.1958 34.054C34.1298 34.2007 34.0968 34.34 34.0968 34.472C34.0968 34.582 34.1262 34.692 34.1848 34.802C34.2435 34.9047 34.3388 34.956 34.4708 34.956C34.6688 34.956 34.9292 34.813 35.2518 34.527C35.5745 34.2337 35.9008 33.7973 36.2308 33.218L36.3408 33.328C36.1868 33.724 35.9888 34.0723 35.7468 34.373C35.5048 34.6737 35.2445 34.9083 34.9658 35.077C34.6945 35.2457 34.4268 35.33 34.1628 35.33C33.8915 35.33 33.6898 35.2493 33.5578 35.088C33.4332 34.9267 33.3708 34.7507 33.3708 34.56C33.3708 34.516 33.3745 34.4683 33.3818 34.417C33.3892 34.3583 33.3965 34.2997 33.4038 34.241C33.0885 34.6663 32.7988 34.9853 32.5348 35.198C32.2782 35.4107 32.0142 35.517 31.7428 35.517ZM37.9089 35.286C37.6595 35.286 37.4615 35.22 37.3149 35.088C37.1755 34.956 37.1059 34.7837 37.1059 34.571C37.1059 34.351 37.1572 34.12 37.2599 33.878C37.3625 33.636 37.4615 33.3977 37.5569 33.163C37.6595 32.921 37.7109 32.7047 37.7109 32.514C37.7109 32.2793 37.6412 32.107 37.5019 31.997C37.3699 31.8797 37.2342 31.7733 37.0949 31.678C36.9262 32.1107 36.7502 32.5213 36.5669 32.91C36.3835 33.2987 36.2332 33.592 36.1159 33.79L36.0169 33.603C36.1195 33.4123 36.2515 33.1337 36.4129 32.767C36.5815 32.4003 36.7465 31.9823 36.9079 31.513C36.8345 31.4397 36.7979 31.3517 36.7979 31.249C36.7979 31.029 36.8602 30.8493 36.9849 30.71C37.1095 30.5707 37.2012 30.501 37.2599 30.501C37.3405 30.501 37.3845 30.5377 37.3919 30.611C37.4065 30.677 37.4139 30.7283 37.4139 30.765C37.4139 30.8017 37.3919 30.875 37.3479 30.985C37.3112 31.0877 37.2929 31.15 37.2929 31.172C37.2929 31.2747 37.3479 31.37 37.4579 31.458C37.5752 31.5387 37.7072 31.634 37.8539 31.744C38.0005 31.8467 38.1289 31.975 38.2389 32.129C38.3562 32.2757 38.4149 32.4663 38.4149 32.701C38.4149 32.921 38.3672 33.1447 38.2719 33.372C38.1839 33.5993 38.0922 33.8157 37.9969 34.021C37.9089 34.2263 37.8649 34.406 37.8649 34.56C37.8649 34.692 37.8979 34.78 37.9639 34.824C38.0299 34.868 38.1069 34.89 38.1949 34.89C38.3709 34.89 38.5505 34.835 38.7339 34.725C38.9245 34.615 39.1079 34.4757 39.2839 34.307C39.4599 34.1383 39.6175 33.9623 39.7569 33.779C39.8962 33.5883 39.9989 33.4123 40.0649 33.251L40.2079 33.361C40.0685 33.669 39.8779 33.9733 39.6359 34.274C39.3939 34.5673 39.1225 34.8093 38.8219 35C38.5285 35.1907 38.2242 35.286 37.9089 35.286ZM40.7431 35.33C40.4277 35.33 40.2004 35.22 40.0611 35C39.9291 34.7873 39.8631 34.5197 39.8631 34.197C39.8631 33.845 39.9291 33.427 40.0611 32.943C40.1931 32.459 40.3654 31.9493 40.5781 31.414C40.7981 30.8787 41.0364 30.358 41.2931 29.852C41.5497 29.3387 41.8064 28.873 42.0631 28.455C42.3197 28.037 42.5544 27.7033 42.7671 27.454C42.9871 27.2047 43.1594 27.08 43.2841 27.08C43.3647 27.08 43.4307 27.1277 43.4821 27.223C43.5334 27.311 43.5737 27.421 43.6031 27.553C43.6324 27.6777 43.6471 27.7913 43.6471 27.894C43.6471 28.092 43.5957 28.3523 43.4931 28.675C43.3977 28.9903 43.2584 29.346 43.0751 29.742C42.8991 30.1307 42.6864 30.5267 42.4371 30.93C42.1951 31.326 41.9274 31.7073 41.6341 32.074C41.3481 32.4407 41.0437 32.756 40.7211 33.02C40.6771 33.218 40.6404 33.4123 40.6111 33.603C40.5891 33.7863 40.5781 33.9623 40.5781 34.131C40.5781 34.417 40.6184 34.6297 40.6991 34.769C40.7797 34.9083 40.9007 34.978 41.0621 34.978C41.2601 34.978 41.4544 34.89 41.6451 34.714C41.8431 34.538 42.0264 34.318 42.1951 34.054C42.3711 33.7827 42.5214 33.504 42.6461 33.218L42.8111 33.306C42.5177 33.9293 42.1987 34.4243 41.8541 34.791C41.5094 35.1503 41.1391 35.33 40.7431 35.33ZM40.8201 32.646C41.0767 32.3893 41.3261 32.096 41.5681 31.766C41.8101 31.4287 42.0337 31.0803 42.2391 30.721C42.4517 30.3617 42.6387 30.0133 42.8001 29.676C42.9614 29.3387 43.0861 29.038 43.1741 28.774C43.2621 28.5027 43.3061 28.2937 43.3061 28.147C43.3061 28.0737 43.2951 28.026 43.2731 28.004C43.2584 27.982 43.2437 27.971 43.2291 27.971C43.1704 27.971 43.0677 28.0663 42.9211 28.257C42.7817 28.4403 42.6167 28.6897 42.4261 29.005C42.2354 29.3203 42.0411 29.6797 41.8431 30.083C41.6451 30.4863 41.4544 30.908 41.2711 31.348C41.0951 31.788 40.9447 32.2207 40.8201 32.646ZM43.6177 35.484C43.1704 35.484 42.833 35.3593 42.6057 35.11C42.3857 34.868 42.2757 34.5673 42.2757 34.208C42.2757 33.878 42.3564 33.5297 42.5177 33.163C42.6864 32.7963 42.9064 32.4517 43.1777 32.129C43.4564 31.8063 43.7607 31.546 44.0907 31.348C44.4207 31.1427 44.747 31.04 45.0697 31.04C45.2384 31.04 45.3924 31.084 45.5317 31.172C45.6784 31.26 45.7517 31.4397 45.7517 31.711C45.7517 31.9897 45.6674 32.2537 45.4987 32.503C45.3374 32.745 45.121 32.9613 44.8497 33.152C44.5857 33.3427 44.2924 33.5003 43.9697 33.625C43.6544 33.7423 43.339 33.8157 43.0237 33.845C43.009 33.9183 42.998 33.988 42.9907 34.054C42.9834 34.12 42.9797 34.1823 42.9797 34.241C42.9797 34.351 42.9907 34.461 43.0127 34.571C43.042 34.681 43.0897 34.7837 43.1557 34.879C43.2217 34.967 43.3097 35.0367 43.4197 35.088C43.537 35.1393 43.68 35.165 43.8487 35.165C44.164 35.165 44.4757 35.077 44.7837 34.901C45.0917 34.7177 45.3777 34.4793 45.6417 34.186C45.9057 33.8927 46.1294 33.57 46.3127 33.218L46.4447 33.317C46.2467 33.757 45.9937 34.1383 45.6857 34.461C45.385 34.7837 45.055 35.033 44.6957 35.209C44.3437 35.3923 43.9844 35.484 43.6177 35.484ZM43.0787 33.636C43.2767 33.57 43.5004 33.4747 43.7497 33.35C43.999 33.218 44.2374 33.064 44.4647 32.888C44.6994 32.712 44.89 32.5177 45.0367 32.305C45.1907 32.0923 45.2677 31.8687 45.2677 31.634C45.2677 31.5533 45.253 31.491 45.2237 31.447C45.1944 31.403 45.132 31.381 45.0367 31.381C44.8607 31.381 44.6737 31.4507 44.4757 31.59C44.2777 31.722 44.087 31.898 43.9037 32.118C43.7204 32.338 43.5554 32.58 43.4087 32.844C43.262 33.108 43.152 33.372 43.0787 33.636ZM47.2478 35.561C46.9031 35.561 46.6281 35.484 46.4228 35.33C46.2248 35.1833 46.0854 35 46.0048 34.78C45.9168 34.56 45.8728 34.34 45.8728 34.12C45.8728 33.9 45.9021 33.7313 45.9608 33.614C46.0194 33.4967 46.0891 33.4087 46.1698 33.35C46.2578 33.2913 46.3384 33.2473 46.4118 33.218C46.4924 33.1887 46.5474 33.1593 46.5768 33.13C46.7968 32.888 46.9984 32.635 47.1818 32.371C47.3651 32.107 47.5264 31.8283 47.6658 31.535V31.403C47.6658 31.1317 47.7098 30.941 47.7978 30.831C47.8931 30.7137 47.9921 30.655 48.0948 30.655C48.1534 30.655 48.1974 30.6697 48.2268 30.699C48.2561 30.7283 48.2708 30.7613 48.2708 30.798C48.2708 30.8347 48.2598 30.8933 48.2378 30.974C48.2158 31.0547 48.2048 31.1573 48.2048 31.282C48.2048 31.524 48.2524 31.788 48.3478 32.074C48.4431 32.3527 48.5384 32.6497 48.6338 32.965C48.7291 33.273 48.7768 33.5957 48.7768 33.933C48.7768 34.0283 48.7694 34.1237 48.7548 34.219C48.7474 34.307 48.7328 34.3913 48.7108 34.472C48.9674 34.428 49.2094 34.3143 49.4368 34.131C49.6641 33.9403 49.8841 33.6397 50.0968 33.229L50.1958 33.339C50.0564 33.7423 49.8474 34.0503 49.5688 34.263C49.2901 34.4683 48.9858 34.5967 48.6558 34.648C48.5384 34.9633 48.3514 35.1943 48.0948 35.341C47.8454 35.4877 47.5631 35.561 47.2478 35.561ZM47.2698 35.176C47.3578 35.176 47.4751 35.1467 47.6218 35.088C47.7684 35.0293 47.8821 34.879 47.9628 34.637C47.6548 34.5783 47.3798 34.4573 47.1378 34.274C46.9031 34.0907 46.7271 33.9073 46.6098 33.724C46.4484 33.7313 46.3678 33.8597 46.3678 34.109C46.3678 34.373 46.4448 34.6187 46.5988 34.846C46.7601 35.066 46.9838 35.176 47.2698 35.176ZM48.0178 34.461C48.0324 34.3877 48.0434 34.3107 48.0508 34.23C48.0581 34.1493 48.0618 34.054 48.0618 33.944C48.0618 33.5993 48.0178 33.2583 47.9298 32.921C47.8491 32.5763 47.7794 32.2537 47.7208 31.953C47.5521 32.2317 47.3724 32.4993 47.1818 32.756C46.9984 33.0053 46.8224 33.2143 46.6538 33.383C46.7638 33.6177 46.9324 33.8377 47.1598 34.043C47.3944 34.2483 47.6804 34.3877 48.0178 34.461Z" fill="black"/>
</mask>
<g mask="url(#mask0_13_156)">
<rect x="7" y="23" width="45" height="17" fill="url(#paint1_linear_13_156)"/>
</g>
<defs>
<linearGradient id="paint0_linear_13_156" x1="9.83477e-07" y1="15" x2="60" y2="48" gradientUnits="userSpaceOnUse">
<stop stop-color="#3BEA96"/>
<stop offset="1" stop-color="#E4BB28" stop-opacity="0.65"/>
</linearGradient>
<linearGradient id="paint1_linear_13_156" x1="8.5" y1="21" x2="50.5" y2="42" gradientUnits="userSpaceOnUse">
<stop stop-color="#3BEA96"/>
<stop offset="1" stop-color="#E4BB28" stop-opacity="0.65"/>
</linearGradient>
</defs>
</svg>
