<svg width="100" height="100" viewBox="0 0 100 100" fill="none" xmlns="http://www.w3.org/2000/svg">
<path d="M49.9999 3.33333L52.457 1.08092C51.8257 0.392155 50.9342 0 49.9999 0C49.0655 0 48.174 0.392155 47.5427 1.08092L49.9999 3.33333ZM49.9999 90L47.3788 92.0593C48.0107 92.864 48.9769 93.3333 49.9999 93.3333C51.0227 93.3333 51.9889 92.864 52.6209 92.0593L49.9999 90ZM53.3332 100V3.33333H46.6665V100H53.3332ZM52.6209 87.9407L33.4401 63.5287L28.1981 67.6473L47.3788 92.0593L52.6209 87.9407ZM34.9151 24.7224L52.457 5.58575L47.5427 1.08092L30.0007 20.2175L34.9151 24.7224ZM47.5427 5.58575L65.0845 24.7224L69.9987 20.2175L52.457 1.08092L47.5427 5.58575ZM66.5595 63.5288L47.3788 87.9407L52.6209 92.0593L71.8013 67.6473L66.5595 63.5288ZM65.0845 24.7224C75.0113 35.5519 75.636 51.977 66.5595 63.5288L71.8013 67.6473C82.8947 53.5288 82.132 33.4535 69.9987 20.2175L65.0845 24.7224ZM33.4401 63.5287C24.3638 51.977 24.9881 35.5519 34.9151 24.7224L30.0007 20.2175C17.8677 33.4536 17.1047 53.5288 28.1981 67.6473L33.4401 63.5287Z" fill="#FF6700"/>
</svg>
