<svg width="71" height="49" viewBox="0 0 71 49" fill="none" xmlns="http://www.w3.org/2000/svg">
<path d="M3.82808 0H66.3619C68.4731 0.0127179 70.19 1.74235 70.19 3.85352V44.9704C70.19 47.0943 68.4604 48.824 66.3365 48.824H3.82808C1.71691 48.824 0 47.0943 0 44.9832V3.85352C0 1.74235 1.71691 0.0127179 3.82808 0Z" fill="#20603D"/>
<path d="M3.82808 0H66.3619C68.4731 0.0127179 70.19 1.74235 70.19 3.85352V36.6275H0V3.85352C0 1.74235 1.71691 0.0127179 3.82808 0Z" fill="#FAD201"/>
<path d="M3.82808 0H66.3619C68.4731 0.0127179 70.19 1.74235 70.19 3.85352V24.4183H0V3.85352C0 1.74235 1.71691 0.0127179 3.82808 0Z" fill="#00A1DE"/>
<path d="M66.4764 12.7561L61.0204 13.074L66.2093 14.7909L60.8551 13.6972L65.4208 16.6986L60.5371 14.2441L64.1745 18.3265L60.092 14.7019L62.5466 19.5729L59.5324 15.0198L60.6389 20.3614L58.922 15.1852L58.604 20.6284L58.5404 12.6925L66.4764 12.7561Z" fill="#E5BE01"/>
<path d="M66.4764 12.7561L61.0204 12.4381L66.2093 10.7212L60.8551 11.8277L65.4208 8.82624L60.5371 11.2681L64.1745 7.18564L60.092 10.823L62.5466 5.93928L59.5324 10.505L60.6389 5.15077L58.922 10.3397L58.604 4.8837L58.5404 12.8324L66.4764 12.7561Z" fill="#E5BE01"/>
<path d="M50.7317 12.7561L56.1876 13.074L50.9987 14.7909L56.353 13.6972L51.7872 16.6986L56.6709 14.2441L53.0336 18.3265L57.116 14.7019L54.6615 19.5729L57.6629 15.0198L56.5692 20.3614L58.2861 15.1852L58.604 20.6284L58.6676 12.6925L50.7317 12.7561Z" fill="#E5BE01"/>
<path d="M50.7317 12.7561L56.1876 12.4381L50.9987 10.7212L56.353 11.8277L51.7872 8.82624L56.6709 11.2681L53.0336 7.18564L57.116 10.823L54.6615 5.93928L57.6629 10.505L56.5692 5.15077L58.2861 10.3397L58.604 4.8837L58.6676 12.8324L50.7317 12.7561Z" fill="#E5BE01"/>
<path d="M60.9314 12.756C60.9314 11.4715 59.8885 10.4286 58.604 10.4286C57.3195 10.4286 56.2766 11.4715 56.2766 12.756C56.2766 14.0405 57.3195 15.0834 58.604 15.0834C59.8885 15.0834 60.9314 14.0405 60.9314 12.756Z" fill="#E5BE01" stroke="#00A1DE" stroke-width="0.3869" stroke-miterlimit="2.6131"/>
</svg>
