<svg width="74" height="48" viewBox="0 0 74 48" fill="none" xmlns="http://www.w3.org/2000/svg">
<path d="M67.7759 0.000152588H5.48684C2.45645 0.000152588 0 2.4566 0 5.48699V42.5132C0 45.5434 2.45645 48 5.48684 48H67.7759C70.8062 48 73.2628 45.5436 73.2628 42.5132V5.48699C73.2628 2.4566 70.8063 0.000152588 67.7759 0.000152588Z" fill="#41479B"/>
<path d="M73.1868 4.57992C72.7544 1.98153 70.4971 0 67.7759 0H66.3483L42.9472 15.3318V0.000143013H30.3156V15.332L6.91446 0.000143013H5.48684C2.76567 0.000143013 0.508404 1.98153 0.0759815 4.58007L20.077 17.6844H0V30.3159H20.077L0.0759815 43.4199C0.508404 46.0183 2.76567 47.9999 5.48684 47.9999H6.91446L30.3156 32.668V47.9999H42.9472V32.668L66.3483 47.9999H67.7759C70.4971 47.9999 72.7544 46.0185 73.1868 43.4199L53.1858 30.3156H73.2628V17.6841H53.1858L73.1868 4.57992Z" fill="#F5F5F5"/>
<path d="M40.4209 0.000152588H32.8419V20.2105H0V27.7895H32.8419V47.9999H40.4209V27.7895H73.2628V20.2105H40.4209V0.000152588Z" fill="#FF4B55"/>
<path d="M3.54766 47.6462L30.2461 30.3158H25.6059L1.31987 46.0805C1.91413 46.774 2.67781 47.3175 3.54766 47.6462Z" fill="#FF4B55"/>
<path d="M49.5651 30.3158H44.925L70.7839 47.1011C71.5075 46.6259 72.1113 45.984 72.542 45.2302L49.5651 30.3158Z" fill="#FF4B55"/>
<path d="M0.579376 3.03357L23.1492 17.6843H27.7893L2.21434 1.08281C1.52764 1.59393 0.965723 2.26217 0.579376 3.03357Z" fill="#FF4B55"/>
<path d="M47.5873 17.6843L71.9179 1.89055C71.317 1.19928 70.5473 0.658963 69.6715 0.336578L42.9472 17.6843H47.5873Z" fill="#FF4B55"/>
</svg>
