<svg width="90" height="90" viewBox="0 0 90 90" fill="none" xmlns="http://www.w3.org/2000/svg">
<path d="M45 90C69.8226 90 90 69.8226 90 45C90 20.1774 69.8226 0 45 0C20.1774 0 0 20.1774 0 45C0 69.8226 20.1774 90 45 90ZM10.1613 62.9274L28.4516 62.7823C30.4839 70.1129 33.8952 77.2258 38.5403 83.6129C26.129 81.5806 15.75 73.6694 10.1613 62.9274ZM33.0968 32.6613H55.8871C57.5565 40.6452 57.5564 48.8468 56.0323 56.8307L33.0968 56.9758C31.4274 48.9194 31.4274 40.6452 33.0968 32.6613ZM44.4919 81.9436C39.9194 76.0645 36.5806 69.6048 34.5484 62.7823L54.5081 62.6371C52.4032 69.4597 49.0645 75.9919 44.4919 81.9436ZM50.2984 83.8307C55.0887 77.2984 58.5 70.1129 60.5323 62.5645L80.0565 62.4194C74.3952 73.8145 63.3629 82.0161 50.2984 83.8307ZM84.1936 45C84.1936 49.0645 83.5403 52.9839 82.4516 56.6129L61.9113 56.7581C63.3629 48.7742 63.2903 40.6452 61.7661 32.6613H82.1613C83.4677 36.5081 84.1936 40.7177 84.1936 45ZM79.6936 26.8548H60.3871C58.2823 19.5968 54.9436 12.5565 50.2984 6.16935C63.1452 7.91129 73.9597 15.8226 79.6936 26.8548ZM54.3629 26.8548H34.621C36.7258 20.1774 39.9919 13.8629 44.4919 8.05645C48.9919 13.8629 52.2581 20.1774 54.3629 26.8548ZM38.5403 6.3871C33.9677 12.7016 30.629 19.5968 28.5968 26.8548H10.3065C15.8952 16.1855 26.2016 8.41936 38.5403 6.3871ZM27.2177 32.6613C25.6936 40.7177 25.6936 48.9194 27.1452 56.9758L7.76613 57.121C6.45968 53.2742 5.80645 49.2097 5.80645 45C5.80645 40.7177 6.53226 36.5081 7.83871 32.6613H27.2177Z" fill="white" fill-opacity="0.77"/>
</svg>
